<svg class="w-6 h-6" width="24" height="24" viewBox="0 0 24 24" fill="none" xmlns="http://www.w3.org/2000/svg"><path d="M19 21V13C19 12.7348 18.8946 12.4805 18.707 12.293C18.5195 12.1054 18.2652 12 18 12H6C5.73478 12 5.48051 12.1054 5.29297 12.293C5.10543 12.4805 5 12.7348 5 13V21C5 21.5523 4.55228 22 4 22C3.44772 22 3 21.5523 3 21V13C3 12.2044 3.3163 11.4415 3.87891 10.8789C4.44152 10.3163 5.20435 10 6 10H18C18.7957 10 19.5585 10.3163 20.1211 10.8789C20.6837 11.4415 21 12.2043 21 13V21C21 21.5523 20.5523 22 20 22C19.4477 22 19 21.5523 19 21Z" fill="#686583" style="fill-opacity:1;"/><path d="M4.88764 16.458L4.8437 16.5361C4.57238 16.9643 4.01579 17.1261 3.55268 16.8945C3.0587 16.6475 2.85843 16.0467 3.10542 15.5527L3.87299 15.9365C3.15881 15.5794 3.1096 15.5539 3.10639 15.5518V15.5508L3.10737 15.5488C3.10811 15.5474 3.10949 15.5455 3.1103 15.5439C3.11198 15.5406 3.11417 15.537 3.11616 15.5332C3.12018 15.5255 3.12453 15.5165 3.12983 15.5068C3.1404 15.4876 3.1539 15.4648 3.16987 15.4385C3.20185 15.3858 3.24535 15.3193 3.3017 15.2441C3.4142 15.0941 3.58027 14.9045 3.81245 14.7188C4.28948 14.3371 5.00703 14 5.99995 14C7.16609 14 8.07392 14.7779 8.62495 15.2188C9.32392 15.7779 9.66609 16 9.99995 16C10.3338 16 10.676 15.7779 11.3749 15.2188C11.926 14.7779 12.8338 14 13.9999 14C15.1661 14 16.0739 14.7779 16.6249 15.2188C17.3239 15.7779 17.6661 16 17.9999 16C18.507 16 18.7895 15.8371 18.9374 15.7188C19.0177 15.6546 19.0704 15.5942 19.0986 15.5566L19.1181 15.5293C19.1168 15.5316 19.1153 15.5352 19.1132 15.5391L19.1113 15.541C19.3618 15.0556 19.9571 14.8604 20.4472 15.1055C20.9412 15.3525 21.1415 15.9533 20.8945 16.4473L19.9999 16C20.8354 16.4177 20.8901 16.4459 20.8935 16.4482V16.4492L20.8925 16.4512C20.8918 16.4526 20.8904 16.4545 20.8896 16.4561C20.8879 16.4594 20.8857 16.463 20.8837 16.4668C20.8797 16.4745 20.8754 16.4835 20.8701 16.4932C20.8595 16.5124 20.846 16.5352 20.83 16.5615C20.798 16.6142 20.7545 16.6807 20.6982 16.7559C20.5857 16.9059 20.4196 17.0955 20.1874 17.2812C19.7104 17.6629 18.9929 18 17.9999 18C16.8338 18 15.926 17.2221 15.3749 16.7812C14.676 16.2221 14.3338 16 13.9999 16C13.6661 16 13.3239 16.2221 12.6249 16.7812C12.0739 17.2221 11.1661 18 9.99995 18C8.83381 18 7.92598 17.2221 7.37495 16.7812C6.67598 16.2221 6.33381 16 5.99995 16C5.49286 16 5.21042 16.1629 5.06245 16.2812C4.98223 16.3454 4.92947 16.4058 4.90131 16.4434C4.88778 16.4614 4.88033 16.4732 4.87885 16.4756C4.87928 16.4749 4.88034 16.4733 4.88178 16.4707C4.88306 16.4684 4.88463 16.4648 4.88666 16.4609C4.88712 16.4601 4.88715 16.459 4.88764 16.458Z" fill="#686583" style="fill-opacity:1;"/><path d="M22 20C22.5523 20 23 20.4477 23 21C23 21.5523 22.5523 22 22 22H2C1.44772 22 1 21.5523 1 21C1 20.4477 1.44772 20 2 20H22Z" fill="#686583" style="fill-opacity:1;"/><path d="M6 11V8C6 7.44772 6.44772 7 7 7C7.55228 7 8 7.44772 8 8V11C8 11.5523 7.55228 12 7 12C6.44772 12 6 11.5523 6 11Z" fill="#686583" style="fill-opacity:1;"/><path d="M11 11V8C11 7.44772 11.4477 7 12 7C12.5523 7 13 7.44772 13 8V11C13 11.5523 12.5523 12 12 12C11.4477 12 11 11.5523 11 11Z" fill="#686583" style="fill-opacity:1;"/><path d="M16 11V8C16 7.44772 16.4477 7 17 7C17.5523 7 18 7.44772 18 8V11C18 11.5523 17.5523 12 17 12C16.4477 12 16 11.5523 16 11Z" fill="#686583" style="fill-opacity:1;"/><path d="M7.00977 3L7.1123 3.00488C7.61655 3.05611 8.00977 3.48224 8.00977 4C8.00977 4.51776 7.61655 4.94389 7.1123 4.99512L7.00977 5H7C6.44772 5 6 4.55228 6 4C6 3.44772 6.44772 3 7 3H7.00977Z" fill="#686583" style="fill-opacity:1;"/><path d="M12.0098 3L12.1123 3.00488C12.6165 3.05611 13.0098 3.48224 13.0098 4C13.0098 4.51776 12.6165 4.94389 12.1123 4.99512L12.0098 5H12C11.4477 5 11 4.55228 11 4C11 3.44772 11.4477 3 12 3H12.0098Z" fill="#686583" style="fill-opacity:1;"/><path d="M17.0098 3L17.1123 3.00488C17.6165 3.05611 18.0098 3.48224 18.0098 4C18.0098 4.51776 17.6165 4.94389 17.1123 4.99512L17.0098 5H17C16.4477 5 16 4.55228 16 4C16 3.44772 16.4477 3 17 3H17.0098Z" fill="#686583" style="fill-opacity:1;"/></svg>