<svg class="w-6 h-6" width="24" height="24" viewBox="0 0 24 24" fill="none" xmlns="http://www.w3.org/2000/svg"><path d="M10 10C10.5523 10 11 10.4477 11 11C11 11.5523 10.5523 12 10 12H6C5.44772 12 5 11.5523 5 11C5 10.4477 5.44772 10 6 10H10Z" fill="#686583" style="fill-opacity:1;"/><path d="M7 13V9C7 8.44772 7.44772 8 8 8C8.55228 8 9 8.44772 9 9V13C9 13.5523 8.55228 14 8 14C7.44772 14 7 13.5523 7 13Z" fill="#686583" style="fill-opacity:1;"/><path d="M15.0098 11L15.1123 11.0049C15.6165 11.0561 16.0098 11.4822 16.0098 12C16.0098 12.5178 15.6165 12.9439 15.1123 12.9951L15.0098 13H15C14.4477 13 14 12.5523 14 12C14 11.4477 14.4477 11 15 11H15.0098Z" fill="#686583" style="fill-opacity:1;"/><path d="M18.0098 9L18.1123 9.00488C18.6165 9.05611 19.0098 9.48224 19.0098 10C19.0098 10.5178 18.6165 10.9439 18.1123 10.9951L18.0098 11H18C17.4477 11 17 10.5523 17 10C17 9.44772 17.4477 9 18 9H18.0098Z" fill="#686583" style="fill-opacity:1;"/><path d="M14.1719 15L14.4688 15.0146C15.1554 15.083 15.8008 15.3867 16.293 15.8789L17.707 17.293C18.1965 17.7825 18.4397 18 19 18L19.1973 17.9902C19.6553 17.9449 20.0858 17.7423 20.4141 17.4141C20.7423 17.0858 20.9449 16.6553 20.9902 16.1973L21 16C21 14.545 20.4181 9.66242 20.3242 8.88086L20.3115 8.77051L20.3047 8.70801C20.3041 8.7032 20.3042 8.69817 20.3037 8.69336C20.2278 7.95489 19.8801 7.2709 19.3291 6.77344C18.8469 6.33816 18.2386 6.07236 17.5967 6.0127L17.3193 6H6.68066L6.40332 6.0127C5.76156 6.07232 5.15305 6.33739 4.6709 6.77246C4.11985 7.26976 3.77239 7.95403 3.69629 8.69238L3.69531 8.70508C3.69454 8.71245 3.68422 8.80162 3.67676 8.86035L3.67773 8.86133C3.59172 9.57704 3 14.5333 3 16L3.00977 16.1973C3.05515 16.6553 3.25765 17.0858 3.58594 17.4141C3.96101 17.7891 4.46957 18 5 18C5.56031 18 5.80347 17.7825 6.29297 17.293L7.70703 15.8789L7.92676 15.6797C8.46048 15.2422 9.13198 15.0001 9.82812 15H14.1719ZM22.9951 16.1982C22.9461 17.1869 22.5314 18.1248 21.8281 18.8281C21.1248 19.5314 20.1869 19.9461 19.1982 19.9951L19 20C17.5603 20 16.8035 19.2175 16.293 18.707L14.8789 17.293C14.7148 17.1288 14.4994 17.0276 14.2705 17.0049L14.1719 17H9.82812C9.59606 17.0001 9.37224 17.0807 9.19434 17.2266L9.12109 17.293L7.70703 18.707C7.19653 19.2175 6.43969 20 5 20C3.93913 20 2.92202 19.5783 2.17188 18.8281C1.46859 18.1248 1.0539 17.1869 1.00488 16.1982L1 16C1 14.379 1.61621 9.25688 1.69238 8.62305L1.69434 8.60645L1.70801 8.4873H1.70703C1.83387 7.25674 2.41266 6.11691 3.33105 5.28809C4.24948 4.45924 5.44256 4.00031 6.67969 4H17.3203L17.5518 4.00586C18.7055 4.05961 19.808 4.51106 20.6689 5.28809C21.587 6.11686 22.1652 7.25702 22.292 8.4873L22.3057 8.60352L22.3076 8.62305L22.4482 9.81445C22.6536 11.5981 23 14.7834 23 16L22.9951 16.1982Z" fill="#686583" style="fill-opacity:1;"/></svg>