<svg class="w-6 h-6" width="24" height="24" viewBox="0 0 24 24" fill="none" xmlns="http://www.w3.org/2000/svg"><path d="M4 9V11H20V9H4ZM22 11C22 12.1046 21.1046 13 20 13H4C2.89543 13 2 12.1046 2 11V9C2 7.89543 2.89543 7 4 7H20C21.1046 7 22 7.89543 22 9V11Z" fill="#686583" style="fill-opacity:1;"/><path d="M11 21V8C11 7.44772 11.4477 7 12 7C12.5523 7 13 7.44772 13 8V21C13 21.5523 12.5523 22 12 22C11.4477 22 11 21.5523 11 21Z" fill="#686583" style="fill-opacity:1;"/><path d="M4 19V12C4 11.4477 4.44772 11 5 11C5.55228 11 6 11.4477 6 12V19L6.00488 19.0986C6.02757 19.3276 6.12883 19.5429 6.29297 19.707C6.48051 19.8946 6.73478 20 7 20H17C17.2652 20 17.5195 19.8946 17.707 19.707C17.8946 19.5195 18 19.2652 18 19V12C18 11.4477 18.4477 11 19 11C19.5523 11 20 11.4477 20 12V19C20 19.7957 19.6837 20.5585 19.1211 21.1211C18.5585 21.6837 17.7957 22 17 22H7C6.20435 22 5.44152 21.6837 4.87891 21.1211C4.38671 20.6289 4.08291 19.9835 4.01465 19.2969L4 19Z" fill="#686583" style="fill-opacity:1;"/><path d="M18 5.49956C17.9999 5.10189 17.8417 4.72021 17.5605 4.43901C17.3145 4.19304 16.9917 4.04149 16.6484 4.00737L16.5 3.99956C16.4942 3.99956 16.4882 3.99966 16.4824 3.99956C15.8758 3.98904 15.1903 4.27887 14.5303 5.01225C13.8652 5.75135 13.3049 6.86279 12.9717 8.23589C12.8628 8.68427 12.4614 8.99956 12 8.99956C11.5386 8.99956 11.1372 8.68427 11.0283 8.23589C10.6951 6.86279 10.1348 5.75135 9.46973 5.01225C8.89202 4.37035 8.29474 4.06855 7.74805 4.0103L7.51758 3.99956C7.51177 3.99966 7.50581 3.99956 7.5 3.99956C7.10228 3.99956 6.72074 4.15784 6.43945 4.43901C6.15825 4.72021 6.00012 5.10189 6 5.49956L6.00781 5.64799C6.04187 5.99146 6.19326 6.31489 6.43945 6.56108C6.68552 6.80702 7.00837 6.95861 7.35156 6.99272L7.5 6.99956L7.60254 7.00542C8.1065 7.05676 8.49978 7.4821 8.5 7.99956C8.5 8.51722 8.10665 8.94332 7.60254 8.99467L7.5 8.99956L7.32617 8.99565C6.46133 8.95268 5.64065 8.59027 5.02539 7.97514C4.40999 7.35975 4.04678 6.53852 4.00391 5.67339L4 5.49956C4.00012 4.57146 4.36912 3.68122 5.02539 3.02495C5.68175 2.36871 6.57185 1.99956 7.5 1.99956V2.00151C8.81588 1.98441 10.0149 2.62862 10.9561 3.67436C11.35 4.11208 11.6985 4.61904 12 5.17827C12.3015 4.61904 12.65 4.11208 13.0439 3.67436C13.9851 2.62862 15.1841 1.98441 16.5 2.00151V1.99956C17.4282 1.99956 18.3183 2.36871 18.9746 3.02495C19.6309 3.68122 19.9999 4.57146 20 5.49956C20 6.42782 19.631 7.31877 18.9746 7.97514C18.3183 8.63135 17.4281 8.99956 16.5 8.99956C15.9477 8.99956 15.5 8.55184 15.5 7.99956C15.5002 7.44747 15.9479 6.99956 16.5 6.99956C16.8977 6.99956 17.2793 6.84222 17.5605 6.56108C17.8419 6.27978 18 5.89738 18 5.49956Z" fill="#686583" style="fill-opacity:1;"/></svg>